<svg width="684" height="306" xmlns="http://www.w3.org/2000/svg"><g transform="translate(-216)" fill="none" fill-rule="evenodd" opacity=".7"><rect fill="#FADBD3" x="337" y="156" width="251" height="20" rx="10"/><rect fill="#FCE4DE" x="434" y="78" width="434" height="20" rx="10"/><rect fill="#FEF6F4" x="138" y="52" width="674" height="20" rx="10"/><rect fill="#F9D2C8" x="414" y="260" width="327" height="20" rx="10"/><rect fill="#FADBD3" x="445" y="104" width="353" height="20" rx="10"/><rect fill="#F7C9BD" x="710" y="156" width="142" height="20" rx="10"/><rect fill="#F7C9BD" x="503" y="156" width="203" height="20" rx="10"/><rect fill="#FADBD3" x="278" y="130" width="554" height="20" rx="10"/><rect fill="#F7C9BD" x="588" y="130" width="161" height="20" rx="10"/><rect fill="#F7C9BD" x="273" y="130" width="161" height="20" rx="10"/><rect fill="#F2A591" x="804" y="104" width="65" height="20" rx="10"/><rect fill="#FEF6F4" x="825" y="182" width="54" height="20" rx="10"/><rect fill="#FCEDE9" x="614" y="182" width="205" height="20" rx="10"/><rect fill="#FCEDE9" x="140" y="182" width="466" height="20" rx="10"/><rect fill="#F7C9BD" x="631" y="26" width="104" height="20" rx="10"/><rect fill="#FCEDE9" x="741" y="26" width="104" height="20" rx="10"/><rect fill="#FCE4DE" x="742" y="234" width="107" height="20" rx="10"/><rect fill="#F2A591" x="444" y="234" width="188" height="20" rx="10"/><rect fill="#FADBD3" x="353" y="26" width="272" height="20" rx="10"/><rect fill="#F9D2C8" x="489" y="208" width="315" height="20" rx="10"/><rect fill="#FADBD3" x="177" y="208" width="286" height="20" rx="10"/><rect fill="#F2A591" x="875" y="104" width="20" height="20" rx="10"/><rect fill="#F9D2C8" x="401" y="78" width="390" height="20" rx="10"/><rect fill="#FADBD3" x="765" y="51" width="135" height="20" rx="10"/><rect fill="#F2A591" x="669" y="260" width="126" height="20" rx="10"/><rect fill="#F9D2C8" x="190" y="52" width="379" height="20" rx="10"/><rect fill="#FADBD3" y="286" width="483" height="20" rx="10"/><rect fill="#FCEDE9" x="401" width="134" height="20" rx="10"/><rect fill="#FCEDE9" x="278" y="260" width="130" height="20" rx="10"/><rect fill="#F2A591" x="417" y="208" width="66" height="20" rx="10"/><rect fill="#F7C9BD" x="559" y="234" width="177" height="20" rx="10"/></g></svg>