<svg width="646" height="68" xmlns="http://www.w3.org/2000/svg" xmlns:xlink="http://www.w3.org/1999/xlink"><defs><path id="a" d="M0 0h646v68H0z"/></defs><g fill="none" fill-rule="evenodd"><mask id="b" fill="#fff"><use xlink:href="#a"/></mask><g mask="url(#b)"><g transform="translate(-44)"><rect fill="#FCEDE9" x="224" y="54" width="176" height="14" rx="7"/><rect fill="#FCE4DE" x="6" y="36" width="551" height="14" rx="7"/><rect fill="#FCE4DE" x="486" y="54" width="99" height="14" rx="7"/><rect fill="#F9D2C8" x="340" y="54" width="142" height="14" rx="7"/><rect fill="#F7C9BD" x="624" y="36" width="48" height="14" rx="7"/><rect fill="#F7C9BD" x="370" y="18" width="72" height="14" rx="7"/><rect fill="#FCE4DE" x="446" y="18" width="72" height="14" rx="7"/><rect fill="#FADBD3" y="18" width="366" height="14" rx="7"/><rect fill="#F7C9BD" x="676" y="36" width="14" height="14" rx="7"/><rect fill="#FADBD3" x="524" y="36" width="96" height="14" rx="7"/><rect fill="#F9D2C8" x="120" y="36" width="265" height="14" rx="7"/><rect fill="#FCE4DE" x="174" width="94" height="14" rx="7"/><rect fill="#FCE4DE" x="143" y="18" width="72" height="14" rx="7"/></g></g></g></svg>