<svg width="681" height="306" xmlns="http://www.w3.org/2000/svg"><g fill="none" fill-rule="evenodd" opacity=".7"><rect fill="#FCE4DE" transform="rotate(180 254.5 192)" x="129" y="182" width="251" height="20" rx="10"/><rect fill="#FEF6F4" transform="rotate(180 345 218)" y="208" width="690" height="20" rx="10"/><rect fill="#F2A591" transform="rotate(180 489 244)" x="152" y="234" width="674" height="20" rx="10"/><rect fill="#FCEDE9" transform="rotate(180 258 36)" x="66" y="26" width="384" height="20" rx="10"/><rect fill="#FCEDE9" transform="rotate(180 288 139)" x="126" y="129" width="324" height="20" rx="10"/><rect fill="#F9D2C8" transform="rotate(180 163.5 192)" x="62" y="182" width="203" height="20" rx="10"/><rect fill="#F9D2C8" transform="rotate(180 418 192)" x="386" y="182" width="64" height="20" rx="10"/><rect fill="#FCE4DE" transform="rotate(180 585.5 192)" x="485" y="182" width="201" height="20" rx="10"/><rect fill="#FCEDE9" transform="rotate(180 453 166)" x="220" y="156" width="466" height="20" rx="10"/><rect fill="#F7C9BD" transform="rotate(180 230.5 166)" x="150" y="156" width="161" height="20" rx="10"/><rect fill="#F7C9BD" transform="rotate(180 651.5 166)" x="571" y="156" width="161" height="20" rx="10"/><rect fill="#F2A591" transform="rotate(180 83.5 139)" x="47" y="129" width="73" height="20" rx="10"/><rect fill="#FCE4DE" transform="rotate(180 281 270)" x="229" y="260" width="104" height="20" rx="10"/><rect fill="#F9D2C8" transform="rotate(180 171 270)" x="119" y="260" width="104" height="20" rx="10"/><rect fill="#F9D2C8" transform="rotate(180 168 112)" x="115" y="102" width="106" height="20" rx="10"/><rect fill="#F7C9BD" transform="rotate(180 477 112)" x="331" y="102" width="292" height="20" rx="10"/><rect fill="#FCE4DE" transform="rotate(180 475 270)" x="339" y="260" width="272" height="20" rx="10"/><rect fill="#FCE4DE" transform="rotate(180 326.5 112)" x="227" y="102" width="199" height="20" rx="10"/><rect fill="#F9D2C8" transform="rotate(180 317.5 88)" x="160" y="78" width="315" height="20" rx="10"/><rect fill="#FCEDE9" transform="rotate(180 576.5 88)" x="501" y="78" width="151" height="20" rx="10"/><rect fill="#FCEDE9" transform="rotate(180 450 218)" x="113" y="208" width="674" height="20" rx="10"/><rect fill="#F7C9BD" transform="rotate(180 130 244)" x="65" y="234" width="130" height="20" rx="10"/><rect fill="#F7C9BD" transform="rotate(180 364 36)" x="241" y="26" width="246" height="20" rx="10"/><rect fill="#FCE4DE" transform="rotate(180 584.5 244)" x="395" y="234" width="379" height="20" rx="10"/><rect fill="#FADBD3" transform="rotate(180 632 36)" x="522" y="26" width="220" height="20" rx="10"/><rect fill="#F2A591" transform="rotate(180 514 88)" x="481" y="78" width="66" height="20" rx="10"/><rect fill="#FCEDE9" x="418" y="286" width="335" height="20" rx="10"/><rect fill="#FCE4DE" x="167" width="82" height="20" rx="10"/><rect fill="#FCEDE9" x="255" width="37" height="20" rx="10"/><rect fill="#F7C9BD" transform="rotate(180 120 62)" x="110" y="52" width="20" height="20" rx="10"/><rect fill="#F7C9BD" transform="rotate(180 182.5 62)" x="136" y="52" width="93" height="20" rx="10"/><rect fill="#FCE4DE" transform="rotate(180 454.5 62)" x="208" y="52" width="493" height="20" rx="10"/><rect fill="#FCE4DE" transform="rotate(180 310.5 139)" x="241" y="129" width="139" height="20" rx="10"/></g></svg>