<svg width="827" height="250" xmlns="http://www.w3.org/2000/svg"><g fill="none" fill-rule="evenodd" opacity=".7"><rect fill="#FCE4DE" transform="rotate(180 261.15 134.4)" x="173.3" y="127.4" width="175.7" height="14" rx="7"/><rect fill="#FEF6F4" transform="rotate(180 283 152.6)" y="145.6" width="566" height="14" rx="7"/><rect fill="#F2A591" transform="rotate(180 493.4 170.8)" x="189.4" y="163.8" width="608" height="14" rx="7"/><rect fill="#FCEDE9" transform="rotate(180 263.6 25.2)" x="129.2" y="18.2" width="268.8" height="14" rx="7"/><rect fill="#FCEDE9" transform="rotate(180 341.2 97.3)" x="171.2" y="90.3" width="340" height="14" rx="7"/><rect fill="#FCEDE9" transform="rotate(180 723 97.3)" x="553" y="90.3" width="340" height="14" rx="7"/><rect fill="#F9D2C8" transform="rotate(180 197.45 134.4)" x="126.4" y="127.4" width="142.1" height="14" rx="7"/><rect fill="#F9D2C8" transform="rotate(180 375.6 134.4)" x="353.2" y="127.4" width="44.8" height="14" rx="7"/><rect fill="#FCE4DE" transform="rotate(180 587 134.4)" x="422.5" y="127.4" width="329" height="14" rx="7"/><rect fill="#FCEDE9" transform="rotate(180 474.1 116.2)" x="311" y="109.2" width="326.2" height="14" rx="7"/><rect fill="#F7C9BD" transform="rotate(180 318.35 116.2)" x="262" y="109.2" width="112.7" height="14" rx="7"/><rect fill="#F7C9BD" transform="rotate(180 613.05 116.2)" x="556.7" y="109.2" width="112.7" height="14" rx="7"/><rect fill="#F2A591" transform="rotate(180 141.45 97.3)" x="115.9" y="90.3" width="51.1" height="14" rx="7"/><rect fill="#F9D2C8" transform="rotate(180 200.6 78.4)" x="163.5" y="71.4" width="74.2" height="14" rx="7"/><rect fill="#F7C9BD" transform="rotate(180 519.2 78.4)" x="314.7" y="71.4" width="409" height="14" rx="7"/><rect fill="#FCE4DE" transform="rotate(180 311.55 78.4)" x="241.9" y="71.4" width="139.3" height="14" rx="7"/><rect fill="#F9D2C8" transform="rotate(180 305.25 61.6)" x="195" y="54.6" width="220.5" height="14" rx="7"/><rect fill="#FCEDE9" transform="rotate(180 486.55 61.6)" x="433.7" y="54.6" width="105.7" height="14" rx="7"/><rect fill="#FCEDE9" transform="rotate(180 702.2 61.6)" x="606.7" y="54.6" width="191" height="14" rx="7"/><rect fill="#FCE4DE" transform="rotate(180 539.6 152.6)" x="162.1" y="145.6" width="755" height="14" rx="7"/><rect fill="#F7C9BD" transform="rotate(180 174 170.8)" x="128.5" y="163.8" width="91" height="14" rx="7"/><rect fill="#F7C9BD" transform="rotate(180 337.8 25.2)" x="251.7" y="18.2" width="172.2" height="14" rx="7"/><rect fill="#FCE4DE" transform="rotate(180 492.15 170.8)" x="359.5" y="163.8" width="265.3" height="14" rx="7"/><rect fill="#FADBD3" transform="rotate(180 631.4 25.2)" x="448.4" y="18.2" width="366" height="14" rx="7"/><rect fill="#F2A591" transform="rotate(180 442.8 61.6)" x="419.7" y="54.6" width="46.2" height="14" rx="7"/><rect fill="#FCE4DE" x="199.9" width="57.4" height="14" rx="7"/><rect fill="#FCEDE9" x="261.5" width="25.9" height="14" rx="7"/><rect fill="#F7C9BD" transform="rotate(180 73 43.4)" x="66" y="36.4" width="14" height="14" rx="7"/><rect fill="#F7C9BD" transform="rotate(180 116.75 43.4)" x="84.2" y="36.4" width="65.1" height="14" rx="7"/><rect fill="#FCE4DE" transform="rotate(180 365.2 43.4)" x="156.7" y="36.4" width="417" height="14" rx="7"/><rect fill="#FCE4DE" transform="rotate(180 335.7 97.3)" x="251.7" y="90.3" width="168" height="14" rx="7"/><rect fill="#FEF6F4" transform="rotate(180 323 188)" x="80" y="181" width="486" height="14" rx="7"/><rect fill="#FCE4DE" transform="rotate(180 265.4 206.2)" x="189.4" y="199.2" width="152" height="14" rx="7"/><rect fill="#FCEDE9" transform="rotate(180 406 224.4)" x="301" y="217.4" width="210" height="14" rx="7"/><rect fill="#F9D2C8" transform="rotate(180 300.4 224.4)" x="264" y="217.4" width="72.8" height="14" rx="7"/><rect fill="#FCE4DE" transform="rotate(180 561.2 224.4)" x="466" y="217.4" width="190.4" height="14" rx="7"/><rect fill="#FCE4DE" transform="rotate(180 589.6 188)" x="434.1" y="181" width="311" height="14" rx="7"/><rect fill="#F7C9BD" transform="rotate(180 737.5 206.2)" x="692" y="199.2" width="91" height="14" rx="7"/><rect fill="#FEF6F4" transform="rotate(180 492.15 206.2)" x="359.5" y="199.2" width="265.3" height="14" rx="7"/><rect fill="#FCEDE9" x="499" y="235.6" width="234.5" height="14" rx="7"/></g></svg>