<svg width="187" height="20" xmlns="http://www.w3.org/2000/svg"><g fill="none" fill-rule="evenodd"><path fill="#6C6A6A" d="M186.42 3.33h-5.648v15.868h-3.484V3.33h-5.648V.467h14.78zM156.705 12.125l-2.28-6.23a13.72 13.72 0 01-.35-.985c-.121-.38-.242-.79-.363-1.23-.112.44-.23.852-.35 1.236-.121.385-.237.719-.35 1.004l-2.267 6.205h5.96zm6.152 7.073h-2.694c-.302 0-.549-.076-.738-.227a1.407 1.407 0 01-.428-.564l-1.399-3.821h-7.76l-1.398 3.821c-.07.199-.203.38-.401.545a1.12 1.12 0 01-.739.246h-2.72L151.95.467h3.55l7.357 18.73zM132.17 14.78c.19 0 .358.074.506.22l1.372 1.49a7.54 7.54 0 01-2.804 2.164c-1.11.5-2.442.751-3.996.751-1.39 0-2.641-.238-3.75-.712a8.26 8.26 0 01-2.844-1.983c-.786-.846-1.388-1.856-1.806-3.03-.42-1.175-.63-2.458-.63-3.848 0-1.408.225-2.696.674-3.866.45-1.17 1.082-2.18 1.899-3.025a8.575 8.575 0 012.92-1.976c1.131-.47 2.384-.706 3.757-.706 1.364 0 2.575.225 3.634.674 1.057.45 1.957 1.036 2.7 1.762l-1.165 1.62c-.07.103-.158.193-.266.27-.109.079-.257.118-.447.118a.856.856 0 01-.402-.11 5.735 5.735 0 01-.453-.273 16.234 16.234 0 00-.57-.356 4.676 4.676 0 00-.751-.356 6.032 6.032 0 00-.99-.272 6.798 6.798 0 00-1.303-.11c-.838 0-1.604.149-2.3.447a5 5 0 00-1.794 1.295c-.5.566-.889 1.256-1.165 2.073-.277.815-.414 1.746-.414 2.79 0 1.055.149 1.992.446 2.812.297.82.701 1.511 1.211 2.073a5.16 5.16 0 001.801 1.288 5.55 5.55 0 002.228.448 9.59 9.59 0 001.29-.079 5.398 5.398 0 001.06-.246c.325-.111.631-.256.92-.434.29-.176.577-.394.861-.653.088-.079.178-.14.273-.188a.66.66 0 01.298-.071"/><path d="M61.537 16.44a6.607 6.607 0 110-13.215 6.607 6.607 0 010 13.214m0-16.18a9.573 9.573 0 109.572 9.574c0-5.288-4.285-9.574-9.572-9.574M32.06 9.379c.656 0 1.228-.082 1.716-.246.488-.165.89-.39 1.205-.68a2.72 2.72 0 00.706-1.03c.155-.398.234-.834.234-1.308 0-.95-.314-1.68-.94-2.19-.626-.51-1.582-.764-2.87-.764h-2.227v6.218h2.176zm8.964 9.819h-3.147c-.596 0-1.028-.234-1.296-.7l-3.938-5.997c-.147-.225-.31-.385-.485-.48-.177-.095-.439-.142-.785-.142h-1.49v7.319H26.4V.467h5.713c1.27 0 2.36.13 3.27.394.912.264 1.66.633 2.242 1.108a4.34 4.34 0 011.288 1.704 5.6 5.6 0 01.415 2.182 5.65 5.65 0 01-.278 1.788 5.183 5.183 0 01-.803 1.529c-.35.458-.782.86-1.296 1.204-.514.345-1.099.618-1.755.816a3.264 3.264 0 011.14 1.088l4.69 6.918zM6.088 9.884c.639 0 1.196-.08 1.671-.24.475-.16.87-.389 1.185-.687.315-.297.551-.66.707-1.088.155-.427.233-.903.233-1.43 0-.502-.078-.955-.233-1.36a2.692 2.692 0 00-.7-1.038c-.312-.284-.704-.502-1.179-.654-.475-.151-1.036-.226-1.684-.226H3.484v6.723h2.604zm0-9.418c1.252 0 2.336.147 3.251.441.916.293 1.672.704 2.267 1.23a4.868 4.868 0 011.328 1.892c.29.734.434 1.537.434 2.41 0 .906-.15 1.737-.453 2.493a5.195 5.195 0 01-1.36 1.95c-.605.544-1.363.967-2.273 1.269-.912.302-1.976.453-3.194.453H3.484v6.593H-.001V.467h6.09zM104.77.467v18.73h-3.07V7.1c0-.484.027-1.006.077-1.567l-5.66 10.635c-.268.51-.678.764-1.231.764h-.493c-.552 0-.963-.255-1.23-.764L87.438 5.492c.026.286.046.566.064.843.017.276.026.53.026.764v12.099h-3.07V.467h2.63a5.2 5.2 0 01.402.013c.111.008.213.03.303.064a.678.678 0 01.247.168c.073.078.144.182.213.312l5.61 10.402c.147.276.282.561.407.854.126.294.249.596.37.907.12-.32.246-.628.376-.926.13-.297.267-.585.414-.861l5.53-10.376c.07-.13.144-.234.221-.312a.731.731 0 01.253-.168 1.12 1.12 0 01.304-.064c.113-.009.247-.013.402-.013h2.63z" fill="#BBB8B8"/><path d="M64.586 10.932v-.012c0-1.077-.262-1.646-.695-2.398-.269-.466-.66-1.435-.32-2.209-.773.615-.983 2.396-1.029 3.616-.135-.587-.112-1.514-.288-2.065-.468-1.466-.995-2.057-.577-2.746-.469.028-.938.855-.938 1.567 0 .687-.186 1.809-.63 2.424-.03-1.327-.477-2.175-.896-2.21.43 1.097-.76 2.453-.76 4.006l.001.027h-.001a3.066 3.066 0 006.12.263c.004-.046.005-.094.007-.141.001-.04.006-.08.006-.122" fill="#BBB8B8"/></g></svg>