<?xml version="1.0" encoding="UTF-8"?>
<svg width="128px" height="128px" viewBox="0 0 128 128" version="1.1" xmlns="http://www.w3.org/2000/svg" xmlns:xlink="http://www.w3.org/1999/xlink">
    <!-- Generator: Sketch 63.1 (92452) - https://sketch.com -->
    <title>prom-favicon-128x128@2x</title>
    <desc>Created with Sketch.</desc>
    <g id="prom-favicon-128x128" stroke="none" stroke-width="1" fill="none" fill-rule="evenodd">
        <g id="Group" fill="#E74C24">
            <g id="promcat-favicon">
                <path d="M64.0024761,108.171316 C39.6078462,108.171316 19.8286842,88.397106 19.8286842,64.0024761 C19.8286842,39.602894 39.6078462,19.8286842 64.0024761,19.8286842 C88.397106,19.8286842 108.171316,39.602894 108.171316,64.0024761 C108.171316,88.397106 88.397106,108.171316 64.0024761,108.171316 M64.0024761,-5.35127498e-14 C28.6535381,-5.35127498e-14 -1.06997744e-13,28.6535381 -1.06997744e-13,64.0024761 C-1.06997744e-13,99.3464619 28.6535381,128 64.0024761,128 C99.3514141,128 128,99.3464619 128,64.0024761 C128,28.6535381 99.3514141,-5.35127498e-14 64.0024761,-5.35127498e-14" id="Fill-8"></path>
                <path d="M84.4428283,70.3425365 L84.4379439,70.3425365 C84.4379439,70.3181145 84.4428283,70.2888081 84.4428283,70.2595017 C84.4428283,63.1575847 82.7137508,59.4063659 79.8612615,54.4487003 C78.0882245,51.376413 75.5043771,44.9876184 77.7560853,39.8834209 C72.6518878,43.9374725 71.2696027,55.679569 70.9667699,63.7290595 C70.0778092,59.8557306 70.2243412,53.7453468 69.0667385,50.1113535 C65.979798,40.4451268 62.5069899,36.547376 65.2617912,32 C62.1699663,32.1856072 59.0781414,37.6414815 59.0781414,42.3353895 C59.0781414,46.8681122 57.8521571,54.2630932 54.9215174,58.3171448 C54.721257,49.5691852 51.7759641,43.9765477 49.0162783,43.7518653 C51.8492301,50.9807767 44,59.9241122 44,70.1618137 C44,70.2204265 44.0097688,70.2839237 44.0097688,70.3425365 L44,70.3425365 C44,81.5131582 53.0507924,90.5639506 64.2165297,90.5639506 C74.8010236,90.5639506 83.4757172,82.4314254 84.3549091,72.0764983 C84.3842155,71.7687811 84.3890999,71.4561796 84.4037531,71.143578 C84.4135219,70.874936 84.4428283,70.6111785 84.4428283,70.3425365" id="Fill-17"></path>
            </g>
            <path d="M125.63528,3.32196474 L125.97876,3.36204923 C127.089114,12.7595461 124.039003,22.5551033 116.828427,29.7656791 C114.149463,32.4446428 111.113678,34.5493108 107.874056,36.0796829 C104.110564,30.1746545 99.1873341,25.082193 93.4258862,21.120823 C94.9400157,18.0106468 96.989669,15.0947693 99.5735931,12.5108451 C106.696756,5.38768203 116.342606,2.3247219 125.63528,3.32196474 Z" id="Combined-Shape"></path>
            <path d="M36.209058,3.32196474 L36.5525382,3.36204923 C37.6628922,12.7595461 34.6127813,22.5551033 27.4022055,29.7656791 C24.7232418,32.4446428 21.6874564,34.5493108 18.4478347,36.0796829 C14.6843426,30.1746545 9.76111245,25.082193 3.99966461,21.120823 C5.51379404,18.0106468 7.56344733,15.0947693 10.1473715,12.5108451 C17.2705346,5.38768203 26.9163844,2.3247219 36.209058,3.32196474 Z" id="Combined-Shape-Copy" transform="translate(20.387394, 19.609125) scale(-1, 1) translate(-20.387394, -19.609125) "></path>
        </g>
    </g>
</svg>