<svg width="24" height="24" xmlns="http://www.w3.org/2000/svg"><path d="M12 0C5.373 0 0 5.373 0 12.001c0 5.301 3.438 9.799 8.207 11.386.6.11.82-.26.82-.579 0-.284-.012-1.04-.018-2.04-3.337.724-4.042-1.61-4.042-1.61-.545-1.386-1.332-1.754-1.332-1.754-1.09-.745.083-.73.083-.73 1.204.085 1.838 1.237 1.838 1.237 1.07 1.833 2.808 1.304 3.492.997.11-.776.419-1.305.762-1.604C7.145 17 4.343 15.97 4.343 11.373c0-1.31.468-2.381 1.236-3.22-.123-.304-.535-1.524.118-3.176 0 0 1.007-.323 3.3 1.23a11.49 11.49 0 013.004-.404c1.019.005 2.045.138 3.004.404 2.29-1.553 3.297-1.23 3.297-1.23.654 1.652.243 2.872.12 3.176.768.839 1.233 1.91 1.233 3.22 0 4.61-2.806 5.624-5.48 5.921.432.37.816 1.103.816 2.223 0 1.603-.015 2.898-.015 3.291 0 .321.216.695.825.578C20.565 21.796 24 17.3 24 12 24 5.373 18.627 0 12 0" fill="#8C8C8C" fill-rule="evenodd"/></svg>