<svg width="24" height="24" xmlns="http://www.w3.org/2000/svg"><path d="M8.842 0a2.527 2.527 0 000 5.053h2.526V2.526A2.526 2.526 0 008.842 0m12.631 12.631h-6.315a2.527 2.527 0 100 5.053h6.315a2.527 2.527 0 000-5.053M8.842 6.315H2.526a2.526 2.526 0 000 5.054h6.316a2.526 2.526 0 000-5.054m6.316 12.632h-2.527v2.526a2.527 2.527 0 102.527-2.526M24 8.842a2.527 2.527 0 00-5.053 0v2.527h2.526A2.527 2.527 0 0024 8.842M0 15.158a2.526 2.526 0 005.053 0v-2.527H2.526A2.526 2.526 0 000 15.158m8.842-2.527a2.527 2.527 0 00-2.527 2.527v6.315a2.527 2.527 0 005.053 0v-6.315a2.526 2.526 0 00-2.526-2.527m6.316-1.262a2.526 2.526 0 002.526-2.527V2.526a2.526 2.526 0 00-5.053 0v6.316a2.527 2.527 0 002.527 2.527" fill="#8C8C8C" fill-rule="evenodd"/></svg>