<svg id="Layer_1" data-name="Layer 1" xmlns="http://www.w3.org/2000/svg" viewBox="0 0 133.71 165.6"><defs><style>.cls-1{fill:#00abc7}</style></defs><path class="cls-1" d="M84.47 148.27c-14.75 0-27.61-7.27-35.32-20.62C46 122.26 38 108 37.62 107.26a5.4 5.4 0 019.44-5.26c.1.18 8.38 14.93 11.45 20.25 7.61 13.18 21.55 18.21 37.29 13.46a5.41 5.41 0 013.13 10.35 50 50 0 01-14.46 2.21z"/><path class="cls-1" d="M85.65 165.42c-20.61 0-39.84-9.64-49.52-26.4L14 100.71a5.39 5.39 0 01-.54-4.1A5.34 5.34 0 0116 93.33l15.06-8.7A5.41 5.41 0 0136.47 94l-10.39 6 19.41 33.63C56 151.84 81 159.44 104 151.51c18.34-15.92 24.27-41.39 13.75-59.62L99.18 59.7a5.4 5.4 0 119.36-5.4l18.58 32.18c13.25 23 6 54.73-16.89 73.93a5.1 5.1 0 01-1.63.94 67.2 67.2 0 01-22.95 4.07zm21.11-9.15z"/><path class="cls-1" d="M84 130.75c-8.53 0-15.77-5.68-19.44-12L.73 8.11a5.41 5.41 0 119.36-5.41l63.85 110.6c1.74 3 6.68 8.19 12.89 6.18a5.4 5.4 0 013.31 10.29 20 20 0 01-6.14.98zM70.2 73.68a5.54 5.54 0 01-1.4-.18 5.41 5.41 0 01-3.28-2.5L47.6 40a5.4 5.4 0 119.4-5.46l15.17 26.35 9.68-5.58a5.41 5.41 0 015.41 9.36L72.9 73a5.49 5.49 0 01-2.7.68z"/></svg>